<svg id="chat_4_" data-name="chat (4)" xmlns="http://www.w3.org/2000/svg" width="19.642" height="19.99" viewBox="0 0 19.642 19.99">
  <g id="Group_285" data-name="Group 285" transform="translate(5.594 6.266)">
    <g id="Group_284" data-name="Group 284">
      <path id="Path_643" data-name="Path 643" d="M155.45,160.478h-6.962a.746.746,0,1,0,0,1.492h6.962a.746.746,0,0,0,0-1.492Z" transform="translate(-147.742 -160.478)" fill="#959595"/>
    </g>
  </g>
  <g id="Group_287" data-name="Group 287" transform="translate(5.594 9.249)">
    <g id="Group_286" data-name="Group 286">
      <path id="Path_644" data-name="Path 644" d="M155.45,236.9h-6.962a.746.746,0,1,0,0,1.492h6.962a.746.746,0,0,0,0-1.492Z" transform="translate(-147.742 -236.896)" fill="#959595"/>
    </g>
  </g>
  <g id="Group_289" data-name="Group 289" transform="translate(5.594 12.233)">
    <g id="Group_288" data-name="Group 288">
      <path id="Path_645" data-name="Path 645" d="M155.45,313.313h-6.962a.746.746,0,1,0,0,1.492h6.962a.746.746,0,0,0,0-1.492Z" transform="translate(-147.742 -313.313)" fill="#959595"/>
    </g>
  </g>
  <g id="Group_291" data-name="Group 291" transform="translate(0)">
    <g id="Group_290" data-name="Group 290">
      <path id="Path_646" data-name="Path 646" d="M14.279,0A9.826,9.826,0,0,0,5.132,13.4,9.678,9.678,0,0,0,6.5,15.812L5.164,18.952A.746.746,0,0,0,5.85,19.99a.721.721,0,0,0,.128-.011l5.072-.885a9.536,9.536,0,0,0,3.228.548A9.821,9.821,0,1,0,14.279,0Zm0,18.15a8.022,8.022,0,0,1-2.89-.522.741.741,0,0,0-.4-.039l-3.918.684.978-2.292a.746.746,0,0,0-.122-.781,8.113,8.113,0,0,1-1.41-2.344,8.331,8.331,0,1,1,7.759,5.294Z" transform="translate(-4.458)" fill="#959595"/>
    </g>
  </g>
</svg>
