<svg xmlns="http://www.w3.org/2000/svg" width="20.5" height="20.5" viewBox="0 0 20.5 20.5">
  <g id="Group_1327" data-name="Group 1327" transform="translate(0.25 0.25)">
    <path id="Path_10053" data-name="Path 10053" d="M10,0A10,10,0,1,0,20,10,10.011,10.011,0,0,0,10,0Zm0,18.845A8.845,8.845,0,1,1,18.845,10,8.855,8.855,0,0,1,10,18.845Z" fill="#0073cf" stroke="#0073cf" stroke-width="0.5"/>
    <path id="Path_10054" data-name="Path 10054" d="M146.56,135.732a.58.58,0,0,0-.786-.236l-6.53,3.511a.58.58,0,0,0-.236.236l-3.51,6.529a.58.58,0,0,0,.776.791h0l.007,0,6.533-3.509a.58.58,0,0,0,.236-.236l3.5-6.513c.008-.013.015-.026.022-.04l0-.009h0A.579.579,0,0,0,146.56,135.732Zm-9.13,8.9,2.23-4.149,1.918,1.918Zm4.969-3.051-1.918-1.918,4.148-2.231" transform="translate(-131.029 -131.027)" fill="#0073cf" stroke="#0073cf" stroke-width="0.5"/>
  </g>
</svg>
