<svg xmlns="http://www.w3.org/2000/svg" width="20" height="20" viewBox="0 0 20 20">
  <path id="Path_6" data-name="Path 6" d="M1638,114.991v1.356a20.227,20.227,0,0,0,16,0v-1.358c0-1.716-3.8-3.051-4.08-3.153a4.218,4.218,0,0,1-7.84,0C1641.81,111.941,1638,113.271,1638,114.991Zm2.5-9.812a5.51,5.51,0,0,1,11,0,16.4,16.4,0,0,1-.785,4.818c2,.766,5.285,2,5.285,4.994V117c0,1.105-4.315,3-10,3s-10-1.9-10-3v-2.007c0-3,3.285-4.228,5.285-4.992A16.421,16.421,0,0,1,1640.5,105.178Zm5.5,7.322c1.97,0,3.5-3.618,3.5-7.322a3.516,3.516,0,0,0-7,0C1642.5,108.882,1644.03,112.5,1646,112.5Z" transform="translate(-1636 -100)" fill="#959595" fill-rule="evenodd"/>
</svg>
